<?xml version="1.0" encoding="UTF-8"?>
<svg version="1.1" xmlns="http://www.w3.org/2000/svg" width="4500" height="4500">
<path d="M0 0 C5.9646692 0.00450114 11.92932904 -0.00055127 17.89399646 -0.00523501 C30.27539024 -0.0146224 42.65676782 -0.01461211 55.03816336 -0.00941418 C67.64043101 -0.00416338 80.24268779 -0.00335055 92.84495588 -0.0077711 C94.04680864 -0.00818853 94.04680864 -0.00818853 95.27294125 -0.00861439 C99.36448088 -0.01005455 103.45602049 -0.01156361 107.54756009 -0.01309553 C137.38152254 -0.02411246 167.21547913 -0.02526783 197.04944301 -0.02139718 C227.28045382 -0.0175036 257.51145995 -0.01796087 287.74247051 -0.02370698 C288.6965995 -0.02388623 289.65072848 -0.02406548 290.63377047 -0.02425016 C299.37804289 -0.02589307 308.1223153 -0.02757867 316.8665877 -0.02931579 C338.79238441 -0.03366488 360.71818121 -0.03730044 382.64397813 -0.04044813 C383.64862388 -0.04059259 384.65326963 -0.04073704 385.68835919 -0.04088587 C435.19502343 -0.04793402 484.70168725 -0.047296 534.20835186 -0.04576737 C535.81763355 -0.04571776 535.81763355 -0.04571776 537.45942599 -0.04566715 C541.8029164 -0.04553284 546.14640682 -0.04539769 550.48989723 -0.04526177 C562.48848 -0.0448866 574.48706277 -0.04452893 586.48564554 -0.04419405 C587.56897031 -0.04416333 588.65229508 -0.04413262 589.76844787 -0.04410097 C638.88844624 -0.04272649 688.00844411 -0.04525799 737.12844234 -0.04872012 C743.70107773 -0.04918335 750.27371313 -0.04963521 756.84634852 -0.05008424 C757.93284198 -0.05015852 759.01933545 -0.0502328 760.13875296 -0.05030933 C762.33524766 -0.05045948 764.53174236 -0.0506096 766.72823706 -0.05075969 C772.22818939 -0.05113576 777.72814172 -0.05151323 783.22809404 -0.05189077 C784.3185837 -0.05196557 785.40907336 -0.05204038 786.53260816 -0.05211745 C792.04710182 -0.05249592 797.56159549 -0.05287585 803.07608916 -0.05325839 C854.53939602 -0.05682643 906.00270292 -0.05969082 957.46600986 -0.06185109 C959.14792648 -0.06192195 959.14792648 -0.06192195 960.86382121 -0.06199424 C1032.30745011 -0.06498872 1103.75107864 -0.06486418 1175.19470756 -0.06243031 C1178.7073725 -0.06231073 1182.22003743 -0.06219234 1185.73270237 -0.06207422 C1211.58868179 -0.06120281 1237.44466121 -0.06027221 1263.30064064 -0.05932359 C1265.65864204 -0.05923721 1268.01664344 -0.05915083 1270.37464484 -0.05906447 C1272.73360794 -0.05897804 1275.09257103 -0.05889159 1277.45153413 -0.05880514 C1278.61956177 -0.05876235 1279.78758941 -0.05871956 1280.99101183 -0.05867548 C1286.89281206 -0.05845909 1292.79461229 -0.05824164 1298.69641252 -0.05802225 C1410.16374783 -0.05388377 1521.63108124 -0.05280575 1633.0984161 -0.06518227 C1634.27192739 -0.06531256 1635.44543868 -0.06544284 1636.65451092 -0.06557707 C1672.14087581 -0.06952899 1707.62724065 -0.07388855 1743.11360548 -0.07834823 C1781.91734144 -0.08322437 1820.72107742 -0.08805835 1859.52481342 -0.09262997 C1860.6833071 -0.09276675 1861.84180078 -0.09290352 1863.03540033 -0.09304443 C1935.60249032 -0.10160058 2008.16957977 -0.10650294 2080.73667026 -0.10733754 C2082.41812805 -0.10735745 2082.41812805 -0.10735745 2084.13355469 -0.10737776 C2133.36644558 -0.10795311 2182.59933643 -0.10766823 2231.8322273 -0.10645904 C2250.54317607 -0.10599984 2269.25412484 -0.1056076 2287.96507361 -0.10524828 C2292.3451197 -0.10516402 2296.72516579 -0.10507475 2301.10521189 -0.10498146 C2351.31737886 -0.1039263 2401.52954444 -0.10500176 2451.74171091 -0.11265642 C2452.82395711 -0.11282106 2453.9062033 -0.11298571 2455.02124484 -0.11315534 C2472.42949922 -0.11581349 2489.83775357 -0.11863263 2507.24600792 -0.12145936 C2556.68180639 -0.12947671 2606.11760281 -0.13581983 2655.55340195 -0.13139052 C2657.05908356 -0.13125642 2657.05908356 -0.13125642 2658.59518298 -0.13111961 C2680.49832813 -0.12913576 2702.40147309 -0.12630009 2724.30461802 -0.12262909 C2733.04112212 -0.12117694 2741.77762624 -0.11983269 2750.51413036 -0.11852128 C2751.46711226 -0.11837521 2752.42009415 -0.11822914 2753.40195429 -0.11807865 C2783.58782624 -0.11350253 2813.77368732 -0.11810536 2843.95955772 -0.12805587 C2873.70313492 -0.13782086 2903.4466964 -0.13840904 2933.19027302 -0.12580057 C2937.27311327 -0.12407102 2941.35595355 -0.12244566 2945.43879386 -0.12088272 C2946.23802245 -0.12057271 2947.03725105 -0.12026271 2947.86069869 -0.11994331 C2960.41121408 -0.11534616 2972.96170388 -0.12068592 2985.51221553 -0.13038468 C2997.82226685 -0.13969057 3010.13227855 -0.13817863 3022.4423272 -0.12545399 C3028.98304729 -0.11897885 3035.5236945 -0.1172952 3042.06441496 -0.1290212 C3069.46822538 -0.17488312 3096.52571692 0.28499443 3123.78530575 3.25738853 C3124.84067524 3.36939101 3125.89604473 3.4813935 3126.98339511 3.59679 C3132.4699987 4.18230527 3137.94169248 4.83543064 3143.41030575 5.56988853 C3144.59926952 5.726706 3144.59926952 5.726706 3145.81225277 5.88669151 C3189.75313693 11.70670834 3232.65251752 21.46278396 3274.78530575 35.25738853 C3275.98026668 35.64781333 3277.17522762 36.03823814 3278.4063995 36.440494 C3364.59066508 64.88475691 3450.33679232 110.51762038 3517.44936825 172.16754478 C3519.89173323 174.35260375 3522.4128677 176.39919024 3524.97280575 178.44488853 C3536.63430964 187.89927163 3547.25258419 198.58147287 3557.78530575 209.25738853 C3560.7614891 212.24362656 3563.75159459 215.21547786 3566.74624325 218.18316978 C3568.21765458 219.64535183 3569.68900735 221.10759283 3571.16030575 222.56988853 C3572.25471981 223.65173423 3572.25471981 223.65173423 3573.37124325 224.7554354 C3578.05863089 229.4218972 3582.47193688 234.24580255 3586.78530575 239.25738853 C3588.23976092 240.86507225 3589.69751469 242.46978567 3591.16030575 244.06988853 C3595.05772021 248.3886451 3598.7583093 252.83500904 3602.414212 257.35895103 C3604.48192565 259.8865351 3606.59122443 262.37107531 3608.72280575 264.84479087 C3614.90488473 272.03892185 3620.63853623 279.51603398 3626.24819637 287.16266196 C3627.25935592 288.54063988 3628.27359831 289.91636182 3629.29116512 291.28961509 C3645.43808633 313.08691429 3660.18054577 335.79611877 3673.78530575 359.25738853 C3674.3566827 360.23788169 3674.92805965 361.21837485 3675.51675106 362.22857993 C3716.80854574 433.41281059 3745.22158098 512.27176196 3766.03530575 639.38238853 C3766.18636776 640.68224693 3766.33742977 641.98210532 3766.49306942 643.32135337 C3766.87404304 646.79244639 3767.21732867 650.26342529 3767.54402006 653.7398293 C3767.70174202 655.38549002 3767.86610131 657.03053167 3768.03792967 658.67477935 C3770.52321685 682.90299142 3770.06928973 707.24006469 3770.04269427 731.56303962 C3770.03819072 737.52359288 3770.04324673 743.48413679 3770.04792929 749.44468827 C3770.05731358 761.81641771 3770.0573078 774.18813092 3770.05210845 786.55986211 C3770.04685664 799.15132069 3770.04604572 811.74276838 3770.05046538 824.3342274 C3770.05074366 825.13493656 3770.05102194 825.93564571 3770.05130866 826.76061878 C3770.05274883 830.84951127 3770.05425789 834.93840373 3770.0557898 839.02729619 C3770.0668052 868.83788692 3770.06796254 898.64847178 3770.06409145 928.45906394 C3770.06019756 958.66546804 3770.06065564 988.87186747 3770.06640125 1019.07827132 C3770.0665805 1020.03170474 3770.06675975 1020.98513815 3770.06694444 1021.96746348 C3770.06858735 1030.7053935 3770.07027295 1039.44332351 3770.07201007 1048.1812535 C3770.0763591 1070.09096579 3770.07999468 1092.00067817 3770.08314241 1113.91039067 C3770.08328686 1114.91428943 3770.08343131 1115.9181882 3770.08358014 1116.95250813 C3770.09062794 1166.41988622 3770.08999031 1215.88726388 3770.08846164 1265.35464233 C3770.08841204 1266.96260803 3770.08841204 1266.96260803 3770.08836143 1268.60305789 C3770.08822711 1272.94300029 3770.08809196 1277.2829427 3770.08795605 1281.62288511 C3770.08758087 1293.61172372 3770.0872232 1305.60056233 3770.08688832 1317.58940094 C3770.0868576 1318.6718503 3770.08682689 1319.75429967 3770.08679524 1320.86955052 C3770.08542069 1369.95233345 3770.08795238 1419.03511588 3770.09141439 1468.11789867 C3770.09187762 1474.68579163 3770.09232949 1481.25368458 3770.09277851 1487.82157754 C3770.09285279 1488.90728797 3770.09292707 1489.9929984 3770.0930036 1491.11160915 C3770.09315375 1493.30652203 3770.09330387 1495.50143491 3770.09345396 1497.69634778 C3770.09383003 1503.19234674 3770.0942075 1508.6883457 3770.09458504 1514.18434465 C3770.09465985 1515.27405161 3770.09473465 1516.36375856 3770.09481172 1517.48648694 C3770.0951902 1522.99702952 3770.09557012 1528.50757209 3770.09595266 1534.01811466 C3770.09952069 1585.44441335 3770.10238509 1636.87071206 3770.10454536 1688.29701083 C3770.1045926 1689.41747863 3770.10463984 1690.53794642 3770.10468851 1691.69236779 C3770.10768295 1763.08345483 3770.10755849 1834.47454149 3770.10512459 1905.86562854 C3770.105005 1909.37565793 3770.10488662 1912.88568733 3770.1047685 1916.39571672 C3770.10389709 1942.23221648 3770.10296649 1968.06871625 3770.10201786 1993.90521601 C3770.10193148 1996.26143487 3770.10184511 1998.61765374 3770.10175875 2000.9738726 C3770.10167231 2003.33105196 3770.10158587 2005.68823132 3770.10149942 2008.04541067 C3770.10145663 2009.21255496 3770.10141384 2010.37969924 3770.10136975 2011.58221153 C3770.10115336 2017.47954941 3770.10093592 2023.3768873 3770.10071652 2029.27422518 C3770.0965781 2140.65567836 3770.0954998 2252.03712965 3770.10787655 2363.41858237 C3770.10800683 2364.59116868 3770.10813711 2365.76375498 3770.10827134 2366.97187421 C3770.11222326 2402.43025801 3770.11658282 2437.88864176 3770.1210425 2473.34702551 C3770.12591866 2512.12026648 3770.13075264 2550.89350745 3770.13532425 2589.66674846 C3770.13546102 2590.82433767 3770.13559779 2591.98192688 3770.1357387 2593.17459455 C3770.14429514 2665.68741029 3770.14919724 2738.20022548 3770.15003181 2810.71304172 C3770.15005172 2812.39329473 3770.15005172 2812.39329473 3770.15007203 2814.10749225 C3770.15064739 2863.30559222 3770.15036249 2912.50369214 3770.14915331 2961.70179209 C3770.14869412 2980.39963881 3770.14830188 2999.09748554 3770.14794256 3017.79533226 C3770.14785829 3022.17229664 3770.14776902 3026.54926101 3770.14767574 3030.92622539 C3770.14662063 3081.10008274 3770.14769541 3131.27393871 3770.15535069 3181.44779556 C3770.15551534 3182.52912764 3770.15567998 3183.61045972 3770.15584961 3184.72455944 C3770.15850775 3202.11797469 3770.16132689 3219.51138992 3770.16415364 3236.90480514 C3770.17217146 3286.30114783 3770.17851365 3335.69748847 3770.17408479 3385.09383183 C3770.17399539 3386.09691986 3770.17390599 3387.10000788 3770.17381388 3388.13349251 C3770.17182999 3410.02191963 3770.16899428 3431.91034655 3770.16532336 3453.79877345 C3770.16387123 3462.52954697 3770.16252697 3471.2603205 3770.16121555 3479.99109405 C3770.16106948 3480.94344798 3770.16092342 3481.89580192 3770.16077292 3482.87701507 C3770.15619762 3513.03758346 3770.16079815 3543.19814099 3770.17075014 3573.35870783 C3770.18051745 3603.07999923 3770.18109993 3632.80127491 3770.16849484 3662.52256574 C3770.16676532 3666.6033777 3770.16513995 3670.6841897 3770.16357699 3674.76500173 C3770.16326699 3675.56382568 3770.16295698 3676.36264963 3770.16263758 3677.18568037 C3770.15804244 3689.72418534 3770.16337693 3702.26266467 3770.17307895 3714.80116589 C3770.18239044 3727.10283504 3770.18086517 3739.40446455 3770.16814827 3751.70613103 C3770.16167825 3758.24099679 3770.15997667 3764.77578965 3770.17171547 3771.31065576 C3770.22978711 3805.94395476 3769.28782691 3840.22210405 3764.47280575 3874.56988853 C3764.31648678 3875.71676643 3764.31648678 3875.71676643 3764.15700985 3876.88681358 C3752.98777346 3958.67703088 3727.88155892 4037.05177983 3644.32778621 4188.06354087 C3642.76548206 4190.28558347 3641.21423816 4192.5150496 3639.664212 4194.74566978 C3633.99203318 4202.8790552 3628.16716473 4210.85556042 3622.0416534 4218.6538729 C3620.73373647 4220.32320799 3619.436682 4222.00059254 3618.1407745 4223.67926353 C3612.08903193 4231.48947394 3605.78275108 4239.03866693 3599.30581356 4246.49859946 C3597.7767363 4248.26730091 3596.25969793 4250.0456203 3594.74624325 4251.82770103 C3584.4212315 4263.97986842 3573.64049825 4275.54785383 3562.30068661 4286.75836509 C3558.79817721 4290.22306747 3555.32739323 4293.71902769 3551.8595245 4297.21832603 C3550.39734244 4298.68973736 3548.93510144 4300.16109013 3547.47280575 4301.63238853 C3546.75157528 4302.3619979 3546.03034481 4303.09160728 3545.28725887 4303.84332603 C3540.62105062 4308.53045897 3535.81174596 4312.96089209 3530.78530575 4317.25738853 C3529.59445194 4318.2916823 3528.40432964 4319.32681899 3527.21499325 4320.36285728 C3524.0579302 4323.1021125 3520.89662058 4325.83644594 3517.7345245 4328.56988853 C3515.87346225 4330.18106867 3514.01661345 4331.79698542 3512.16030575 4333.41363853 C3504.58525107 4339.98934562 3496.8279907 4346.2604477 3488.78530575 4352.25738853 C3488.0774493 4352.78590415 3487.36959286 4353.31441978 3486.64028621 4353.85895103 C3462.80598056 4371.61685173 3438.45543338 4388.24786862 3412.78530575 4403.25738853 C3412.12707821 4403.64314048 3411.46885067 4404.02889243 3410.79067684 4404.42633384 C3397.40816853 4412.22434626 3383.59562828 4419.25491719 3369.78530575 4426.25738853 C3368.71941219 4426.79911704 3367.65351864 4427.34084556 3366.55532528 4427.89899009 C3294.69424984 4464.15906329 3215.29459379 4486.85684106 3135.41030575 4496.00738853 C3134.0966856 4496.1591001 3134.0966856 4496.1591001 3132.75652767 4496.31387656 C3127.43640779 4496.92055086 3122.11266538 4497.46391044 3116.78221404 4497.971242 C3114.88815956 4498.15208741 3112.9944838 4498.33698591 3111.10138038 4498.52752954 C3086.58465628 4500.92704341 3061.98828588 4500.54171518 3037.38355539 4500.51477705 C3031.42644222 4500.51027109 3025.46933838 4500.51533068 3019.51222699 4500.52001207 C3007.14876604 4500.52939327 2994.78532133 4500.52939199 2982.42185863 4500.52419123 C2969.83980346 4500.51893842 2957.25775919 4500.51812939 2944.67570358 4500.52254816 C2943.47529656 4500.52296558 2943.47529656 4500.52296558 2942.25063889 4500.52339144 C2938.16394426 4500.52483162 2934.07724966 4500.52634068 2929.99055507 4500.52787258 C2900.20009379 4500.53888643 2870.40963839 4500.54004576 2840.61917568 4500.53617423 C2810.43415486 4500.53228003 2780.24913873 4500.53273891 2750.06411815 4500.53848403 C2749.11127987 4500.53866328 2748.15844158 4500.53884253 2747.17672941 4500.53902722 C2738.44422632 4500.54067014 2729.71172325 4500.54235574 2720.97922018 4500.54409285 C2699.08334458 4500.54844182 2677.18746889 4500.55207743 2655.29159308 4500.55522519 C2654.28834001 4500.55536964 2653.28508694 4500.55551409 2652.25143226 4500.55566292 C2602.81852606 4500.56271035 2553.3856203 4500.56207314 2503.95271374 4500.56054443 C2502.88151454 4500.56051135 2501.81031535 4500.56047828 2500.70665558 4500.56044421 C2496.36986136 4500.56030989 2492.03306715 4500.56017474 2487.69627293 4500.56003883 C2475.71610115 4500.55966365 2463.73592936 4500.55930598 2451.75575758 4500.5589711 C2450.67408841 4500.55894039 2449.59241924 4500.55890967 2448.47797222 4500.55887802 C2399.42864383 4500.55750342 2350.37931593 4500.56003526 2301.32998767 4500.56349717 C2294.76639642 4500.5639604 2288.20280516 4500.56441227 2281.63921391 4500.56486129 C2280.01171468 4500.56497271 2280.01171468 4500.56497271 2278.35133668 4500.56508638 C2276.15786058 4500.56523653 2273.96438448 4500.56538665 2271.77090838 4500.56553674 C2266.27850348 4500.56591281 2260.78609859 4500.56629028 2255.29369369 4500.56666783 C2254.20469882 4500.56674263 2253.11570396 4500.56681743 2251.99370925 4500.5668945 C2246.48676403 4500.56727298 2240.97981881 4500.5676529 2235.47287359 4500.56803544 C2184.08040195 4500.57160345 2132.68793028 4500.57446786 2081.29545856 4500.57662814 C2080.17573371 4500.57667538 2079.05600886 4500.57672262 2077.90235296 4500.57677129 C2006.55983228 4500.57976568 1935.21731198 4500.57964131 1863.87479128 4500.57720737 C1860.36720859 4500.57708778 1856.8596259 4500.5769694 1853.35204321 4500.57685128 C1827.53360036 4500.57597987 1801.7151575 4500.57504927 1775.89671465 4500.57410065 C1773.54214596 4500.57401426 1771.18757727 4500.57392789 1768.83300857 4500.57384153 C1766.47748028 4500.57375509 1764.12195198 4500.57366865 1761.76642368 4500.5735822 C1760.60009697 4500.57353941 1759.43377027 4500.57349662 1758.23210033 4500.57345253 C1752.33889345 4500.57323614 1746.44568658 4500.5730187 1740.55247971 4500.5727993 C1629.24788545 4500.56866084 1517.9432931 4500.5675828 1406.6386993 4500.57995933 C1404.88100202 4500.58015475 1404.88100202 4500.58015475 1403.0877957 4500.58035412 C1367.65315755 4500.58430605 1332.21851946 4500.58866561 1296.78388137 4500.59312528 C1258.03653119 4500.59800144 1219.289181 4500.60283543 1180.54183079 4500.60740703 C1179.38501348 4500.6075438 1178.22819618 4500.60768057 1177.03632381 4500.60782148 C1104.57191063 4500.61637791 1032.10749798 4500.62128002 959.6430843 4500.62211459 C958.52366523 4500.62212786 957.40424617 4500.62214114 956.25090532 4500.62215481 C907.08577166 4500.62273017 857.92063802 4500.62244527 808.75550437 4500.6212361 C790.07021632 4500.6207769 771.38492826 4500.62038466 752.69964021 4500.62002534 C748.3256205 4500.61994107 743.9516008 4500.6198518 739.57758109 4500.61975852 C689.43775641 4500.61870342 639.29793313 4500.61977814 589.15810896 4500.62743347 C588.0775176 4500.62759812 586.99692623 4500.62776276 585.88358968 4500.62793239 C568.50211382 4500.63059052 551.12063799 4500.63340967 533.73916217 4500.63623642 C484.37685759 4500.64425422 435.01455507 4500.65059643 385.65224982 4500.64616757 C384.64985356 4500.64607817 383.6474573 4500.64598877 382.61468539 4500.64589666 C360.74136492 4500.64391277 338.86804465 4500.64107706 316.99472439 4500.63740614 C308.26998426 4500.63595401 299.54524411 4500.63460975 290.82050396 4500.63329833 C289.86880845 4500.63315226 288.91711295 4500.6330062 287.93657818 4500.6328557 C257.79694853 4500.62828041 227.65732976 4500.6328809 197.51770165 4500.64283292 C167.81704176 4500.65260026 138.1163976 4500.65318267 108.41573827 4500.64057762 C104.33774877 4500.6388481 100.25975923 4500.63722273 96.18176966 4500.63565977 C95.38349841 4500.63534977 94.58522716 4500.63503976 93.76276587 4500.63472036 C81.23301561 4500.63012525 68.70329101 4500.63545967 56.1735445 4500.64516173 C43.88042891 4500.65447329 31.58735298 4500.65294785 19.29424005 4500.64023105 C12.76393917 4500.6337611 6.23371124 4500.63205928 -0.29659 4500.64379825 C-28.42074302 4500.69092122 -56.22561628 4500.12314748 -84.21469425 4497.25738853 C-85.71574455 4497.10630741 -87.21680148 4496.95529227 -88.7178646 4496.80433863 C-90.21325122 4496.65259476 -91.70860028 4496.50048031 -93.20390828 4496.34796364 C-94.21383043 4496.24501404 -94.21383043 4496.24501404 -95.24415504 4496.13998464 C-162.3523696 4489.18084963 -229.28457423 4470.87347384 -291.21469425 4444.25738853 C-292.34874699 4443.77076743 -293.48279972 4443.28414634 -294.65121769 4442.78277915 C-322.41010507 4430.78522816 -349.64608266 4417.55601087 -375.52572941 4401.88190025 C-378.20759981 4400.26167457 -380.9021336 4398.66481945 -383.601413 4397.07379478 C-393.69065031 4391.11056165 -403.57648881 4384.92593036 -413.21469425 4378.25738853 C-413.86969914 4377.80428306 -414.52470402 4377.35117759 -415.19955754 4376.88434165 C-431.74094951 4365.39715446 -447.96517078 4353.53858288 -463.47787785 4340.69000571 C-465.97703831 4338.6285672 -468.50514797 4336.60322146 -471.02719425 4334.56988853 C-475.71966972 4330.7299499 -480.20514942 4326.69280687 -484.66781925 4322.58941978 C-486.80411174 4320.63333601 -488.96250083 4318.71551155 -491.15219425 4316.81988853 C-500.53254828 4308.64558002 -509.48126012 4300.11499471 -518.21469425 4291.25738853 C-521.37715966 4288.07813127 -524.56589183 4284.92661625 -527.76156925 4281.78082603 C-544.12541048 4265.61929796 -544.12541048 4265.61929796 -550.28500675 4257.69098228 C-552.4775593 4254.92588058 -554.8216033 4252.35050988 -557.21469425 4249.75738853 C-562.10811319 4244.42732605 -566.68675684 4238.89887407 -571.21469425 4233.25738853 C-572.13858874 4232.12540066 -573.06309715 4230.99391366 -573.98813175 4229.86285728 C-581.21450073 4220.98419789 -587.99505568 4211.83315945 -594.62094425 4202.49957603 C-596.15546842 4200.34071115 -597.69958921 4198.18903851 -599.24594425 4196.03863853 C-610.30762844 4180.59327002 -620.64894951 4164.67106717 -630.21469425 4148.25738853 C-630.86873234 4147.14436362 -630.86873234 4147.14436362 -631.53598332 4146.00885337 C-640.31425443 4131.04187062 -648.39578513 4115.7448006 -656.21469425 4100.25738853 C-657.02076115 4098.66942466 -657.02076115 4098.66942466 -657.84311222 4097.04938071 C-680.2542647 4052.64094746 -696.9904031 4005.43003994 -709.21469425 3957.25738853 C-709.39453861 3956.55132468 -709.57438297 3955.84526084 -709.75967716 3955.11780112 C-717.62408502 3924.10414974 -722.86514486 3892.53153397 -726.52719425 3860.75738853 C-726.67446964 3859.48057212 -726.82174504 3858.20375571 -726.97348332 3856.8882479 C-727.34001305 3853.50450037 -727.66819125 3850.11943463 -727.98083293 3846.73036729 C-728.13452012 3845.10519403 -728.29551859 3843.48069249 -728.46447909 3841.85703605 C-730.94826059 3817.62212819 -730.49868553 3793.28138328 -730.47208278 3768.95173743 C-730.46757923 3762.99118417 -730.47263523 3757.03064026 -730.47731779 3751.07008878 C-730.48670209 3738.69835934 -730.4866963 3726.32664613 -730.48149696 3713.95491494 C-730.47624515 3701.36345637 -730.47543422 3688.77200867 -730.47985388 3676.18054965 C-730.48013217 3675.3798405 -730.48041045 3674.57913134 -730.48069717 3673.75415827 C-730.48213734 3669.66526578 -730.4836464 3665.57637332 -730.48517831 3661.48748087 C-730.49619371 3631.67689013 -730.49735105 3601.86630527 -730.49347996 3572.05571311 C-730.48958607 3541.84930901 -730.49004415 3511.64290959 -730.49578976 3481.43650573 C-730.49596901 3480.48307232 -730.49614826 3479.5296389 -730.49633294 3478.54731357 C-730.49797586 3469.80938355 -730.49966146 3461.07145355 -730.50139858 3452.33352355 C-730.5057476 3430.42381126 -730.50938319 3408.51409888 -730.51253092 3386.60438638 C-730.51267537 3385.60048762 -730.51281982 3384.59658886 -730.51296865 3383.56226892 C-730.52001645 3334.09489083 -730.51937882 3284.62751318 -730.51785015 3235.16013473 C-730.51780054 3233.55216902 -730.51780054 3233.55216902 -730.51774993 3231.91171916 C-730.51761562 3227.57177676 -730.51748047 3223.23183435 -730.51734456 3218.89189195 C-730.51696938 3206.90305334 -730.51661171 3194.91421472 -730.51627683 3182.92537611 C-730.51624611 3181.84292675 -730.5162154 3180.76047739 -730.51618375 3179.64522653 C-730.5148092 3130.5624436 -730.51734089 3081.47966117 -730.5208029 3032.39687838 C-730.52126613 3025.82898543 -730.52171799 3019.26109247 -730.52216702 3012.69319952 C-730.52227844 3011.06463387 -730.52227844 3011.06463387 -730.52239211 3009.4031679 C-730.52254226 3007.20825502 -730.52269238 3005.01334215 -730.52284247 3002.81842927 C-730.52321854 2997.32243031 -730.52359601 2991.82643136 -730.52397355 2986.3304324 C-730.52404836 2985.24072544 -730.52412316 2984.15101849 -730.52420023 2983.02829011 C-730.52457871 2977.51774754 -730.52495863 2972.00720497 -730.52534117 2966.49666239 C-730.5289092 2915.0703637 -730.53177359 2863.64406499 -730.53393387 2812.21776622 C-730.53398111 2811.09729843 -730.53402835 2809.97683063 -730.53407702 2808.82240927 C-730.53707146 2737.43132223 -730.53694699 2666.04023556 -730.5345131 2594.64914851 C-730.53439351 2591.13911912 -730.53427513 2587.62908973 -730.53415701 2584.11906034 C-730.5332856 2558.28256057 -730.532355 2532.44606081 -730.53140637 2506.60956104 C-730.53131999 2504.25334218 -730.53123361 2501.89712332 -730.53114725 2499.54090445 C-730.53106082 2497.1837251 -730.53097437 2494.82654574 -730.53088793 2492.46936638 C-730.53084513 2491.3022221 -730.53080234 2490.13507781 -730.53075826 2488.93256552 C-730.53054187 2483.03522764 -730.53032443 2477.13788976 -730.53010503 2471.24055188 C-730.52596661 2359.85909869 -730.52488831 2248.47764741 -730.53726505 2137.09619468 C-730.53739534 2135.92360837 -730.53752562 2134.75102207 -730.53765985 2133.54290285 C-730.54161177 2098.08451904 -730.54597133 2062.62613529 -730.55043101 2027.16775155 C-730.55530717 1988.39451058 -730.56014115 1949.6212696 -730.56471276 1910.84802859 C-730.56484953 1909.69043938 -730.5649863 1908.53285017 -730.56512721 1907.3401825 C-730.57368364 1834.82736677 -730.57858575 1762.31455157 -730.57942032 1689.80173534 C-730.57944023 1688.12148232 -730.57944023 1688.12148232 -730.57946054 1686.4072848 C-730.5800359 1637.20918484 -730.579751 1588.01108491 -730.57854182 1538.81298496 C-730.57808263 1520.11513824 -730.57769038 1501.41729152 -730.57733106 1482.71944479 C-730.5772468 1478.34248042 -730.57715753 1473.96551604 -730.57706424 1469.58855167 C-730.57600914 1419.41469431 -730.57708392 1369.24083835 -730.5847392 1319.06698149 C-730.58490384 1317.98564941 -730.58506849 1316.90431733 -730.58523812 1315.79021761 C-730.58789625 1298.39680236 -730.5907154 1281.00338713 -730.59354214 1263.60997191 C-730.60155996 1214.21362922 -730.60790216 1164.81728858 -730.6034733 1115.42094522 C-730.6033839 1114.4178572 -730.6032945 1113.41476917 -730.60320239 1112.38128454 C-730.60121849 1090.49285742 -730.59838278 1068.6044305 -730.59471187 1046.71600361 C-730.59325973 1037.98523009 -730.59191548 1029.25445655 -730.59060406 1020.52368301 C-730.59045799 1019.57132907 -730.59031192 1018.61897513 -730.59016143 1017.63776199 C-730.58558613 987.47719359 -730.59018666 957.31663607 -730.60013865 927.15606922 C-730.60990596 897.43477782 -730.61048844 867.71350214 -730.59788335 837.99221131 C-730.59615383 833.91139935 -730.59452846 829.83058735 -730.5929655 825.74977532 C-730.59250049 824.5515394 -730.59250049 824.5515394 -730.59202609 823.32909668 C-730.58743095 810.79059171 -730.59276544 798.25211238 -730.60246746 785.71361116 C-730.61177894 773.41194202 -730.61025368 761.1103125 -730.59753677 748.80864602 C-730.59106676 742.27378026 -730.58936518 735.7389874 -730.60110398 729.20412129 C-730.65917716 694.56990258 -729.71341828 660.29382394 -724.90219425 625.94488853 C-724.79864628 625.18296195 -724.69509831 624.42103538 -724.58841252 623.63602012 C-715.94475861 560.13005231 -699.15064481 498.29912316 -674.21469425 439.25738853 C-673.74773136 438.14992271 -673.28076847 437.04245689 -672.79965519 435.9014315 C-661.21049888 408.65201496 -648.02163196 382.08259155 -632.7005341 356.73834556 C-631.37809303 354.53022099 -630.09266403 352.30751123 -628.8279755 350.06598228 C-616.85907876 328.93918458 -602.76619835 308.67840878 -588.21469425 289.25738853 C-587.78575871 288.68359458 -587.35682316 288.10980064 -586.91488957 287.518619 C-573.94005572 270.23735197 -560.04800339 253.60270843 -545.429538 237.69098228 C-543.56359279 235.64074618 -541.7569869 233.55898932 -539.96469425 231.44488853 C-534.89692391 225.60119162 -529.28455536 220.25119644 -523.78866886 214.81500571 C-520.87152363 211.92817671 -517.97376464 209.0222832 -515.08285832 206.10919517 C-512.52476258 203.53147275 -509.96351697 200.95690422 -507.40219425 198.38238853 C-506.53787785 197.50969321 -505.67356144 196.6369979 -504.78305363 195.73785728 C-499.75889144 190.69473599 -494.64216816 185.86256158 -489.21469425 181.25738853 C-488.08546227 180.28380787 -486.95654433 179.30986283 -485.8279755 178.33551353 C-482.88944168 175.81457239 -479.94533181 173.30015953 -477.00082707 170.78619712 C-475.33587261 169.36110899 -473.67693343 167.92935375 -472.01938175 166.49566978 C-464.04359177 159.62908734 -455.76682678 153.20661518 -447.36117863 146.87604087 C-445.28139677 145.30768853 -443.20834728 143.73082321 -441.13656925 142.15191978 C-432.021686 135.22803926 -422.72974822 128.61956372 -413.21469425 122.25738853 C-412.48363468 121.76690025 -411.75257511 121.27641196 -410.99936222 120.7710604 C-338.66380085 72.43417578 -257.67425917 37.45537584 -91.33969425 4.06988853 C-90.66721653 3.9909838 -89.99473881 3.91207908 -89.30188297 3.8307833 C-85.11046198 3.34442462 -80.91578528 2.91375985 -76.71603942 2.50610715 C-75.10441701 2.34585717 -73.49349115 2.17835345 -71.88355957 2.00192456 C-48.00955115 -0.57663308 -23.97614642 -0.02617957 0 0 Z " fill="#000000" transform="translate(730.2146942541003,-0.2573885265737772)"/>
<path d="M0 0 C1.46606388 0.86043548 2.93359685 1.71837118 4.40234375 2.57421875 C15.11070088 8.86814171 25.63845281 15.46849189 36.20605469 21.99462891 C44.16554651 26.89989712 52.18609259 31.69036688 60.24707031 36.42651367 C67.19984666 40.5147816 74.09129433 44.69436397 80.96484375 48.9140625 C87.3595095 52.83887285 93.77379253 56.73142119 100.1875 60.625 C100.80312805 60.99878784 101.4187561 61.37257568 102.05303955 61.75769043 C109.64287963 66.36528048 117.24338844 70.95394314 124.86328125 75.51171875 C131.44045772 79.45802463 137.98699859 83.45530517 144.54135132 87.43936157 C152.11843079 92.04440502 159.7039207 96.63461556 167.3125 101.1875 C177.18240477 107.09518086 187.00444577 113.08036819 196.82666016 119.06689453 C202.61100362 122.59054675 208.39858464 126.10886468 214.1875 129.625 C214.78602783 129.98854584 215.38455566 130.35209167 216.0012207 130.72665405 C224.10013775 135.64473375 232.21363131 140.53769921 240.34448242 145.40283203 C248.19303931 150.10415983 256.00952645 154.85800581 263.82699585 159.61074829 C271.30874681 164.1588683 278.79921611 168.69158388 286.3125 173.1875 C296.18240158 179.09518621 306.00444573 185.08036816 315.82666016 191.06689453 C321.61100362 194.59054675 327.39858464 198.10886468 333.1875 201.625 C333.78602783 201.98854584 334.38455566 202.35209167 335.0012207 202.72665405 C343.10013775 207.64473375 351.21363131 212.53769921 359.34448242 217.40283203 C367.19303931 222.10415983 375.00952645 226.85800581 382.82699585 231.61074829 C391.09973183 236.63970424 399.38759912 241.64227242 407.6953125 246.61328125 C414.96706733 250.96919331 422.20487739 255.38007503 429.44140625 259.79418945 C435.54831273 263.51635304 441.67279358 267.20724476 447.8125 270.875 C455.54267762 275.49425248 463.21430648 280.20403144 470.875 284.9375 C479.94048074 290.53694328 489.06021058 296.02886617 498.24707031 301.42651367 C505.21293436 305.52247723 512.11709306 309.71039045 519.00390625 313.9375 C525.17864708 317.72715327 531.37011509 321.48927778 537.5625 325.25 C538.1613501 325.61378754 538.7602002 325.97757507 539.37719727 326.35238647 C547.77515854 331.4526976 556.19265877 336.51916962 564.625 341.5625 C573.18755188 346.68370855 581.7004656 351.87965436 590.1875 357.125 C599.14884795 362.66289665 608.16571178 368.09081729 617.24829102 373.42724609 C624.20067471 377.51524517 631.09169915 381.69461249 637.96484375 385.9140625 C644.3595095 389.83887285 650.77379253 393.73142119 657.1875 397.625 C657.80312805 397.99878784 658.4187561 398.37257568 659.05303955 398.75769043 C666.64287963 403.36528048 674.24338844 407.95394314 681.86328125 412.51171875 C688.44149162 416.45864497 694.98926721 420.45623452 701.54437256 424.44137573 C709.05598792 429.0074851 716.57824632 433.55461833 724.125 438.0625 C731.75106759 442.61906947 739.31752492 447.26817227 746.875 451.9375 C755.8641531 457.49060927 764.90885614 462.93194918 774.02294922 468.27709961 C780.23755203 471.93158453 786.38258193 475.68532106 792.5 479.5 C799.67345177 483.97313551 806.89939278 488.3411604 814.1875 492.625 C822.16830888 497.3159992 830.09499929 502.08294357 837.984375 506.92578125 C844.26908159 510.78301343 850.57192259 514.61039564 856.875 518.4375 C857.78386459 518.98943527 857.78386459 518.98943527 858.71109009 519.55252075 C867.02317938 524.5992305 875.35042281 529.61990739 883.69482422 534.61303711 C890.96679959 538.96893399 898.20472286 543.37998077 905.44140625 547.79418945 C911.54831273 551.51635304 917.67279358 555.20724476 923.8125 558.875 C931.54267762 563.49425248 939.21430648 568.20403144 946.875 572.9375 C955.94048074 578.53694328 965.06021058 584.02886617 974.24707031 589.42651367 C981.19984666 593.5147816 988.09129433 597.69436397 994.96484375 601.9140625 C1001.3595095 605.83887285 1007.77379253 609.73142119 1014.1875 613.625 C1014.80312805 613.99878784 1015.4187561 614.37257568 1016.05303955 614.75769043 C1023.64287963 619.36528048 1031.24338844 623.95394314 1038.86328125 628.51171875 C1045.44045772 632.45802463 1051.98699859 636.45530517 1058.54135132 640.43936157 C1066.11843079 645.04440502 1073.7039207 649.63461556 1081.3125 654.1875 C1091.18240477 660.09518086 1101.00444577 666.08036819 1110.82666016 672.06689453 C1116.61100362 675.59054675 1122.39858464 679.10886468 1128.1875 682.625 C1129.08529175 683.17031876 1129.08529175 683.17031876 1130.0012207 683.72665405 C1138.10013775 688.64473375 1146.21363131 693.53769921 1154.34448242 698.40283203 C1162.19303931 703.10415983 1170.00952645 707.85800581 1177.82699585 712.61074829 C1185.30874681 717.1588683 1192.79921611 721.69158388 1200.3125 726.1875 C1210.18240158 732.09518621 1220.00444573 738.08036816 1229.82666016 744.06689453 C1235.61100362 747.59054675 1241.39858464 751.10886468 1247.1875 754.625 C1248.08529175 755.17031876 1248.08529175 755.17031876 1249.0012207 755.72665405 C1257.10013775 760.64473375 1265.21363131 765.53769921 1273.34448242 770.40283203 C1281.19303931 775.10415983 1289.00952645 779.85800581 1296.82699585 784.61074829 C1305.09973183 789.63970424 1313.38759912 794.64227242 1321.6953125 799.61328125 C1328.96706733 803.96919331 1336.20487739 808.38007503 1343.44140625 812.79418945 C1349.54831273 816.51635304 1355.67279358 820.20724476 1361.8125 823.875 C1369.54267762 828.49425248 1377.21430648 833.20403144 1384.875 837.9375 C1393.94048074 843.53694328 1403.06021058 849.02886617 1412.24707031 854.42651367 C1419.21293436 858.52247723 1426.11709306 862.71039045 1433.00390625 866.9375 C1439.17864708 870.72715327 1445.37011509 874.48927778 1451.5625 878.25 C1452.1613501 878.61378754 1452.7602002 878.97757507 1453.37719727 879.35238647 C1461.77515854 884.4526976 1470.19265877 889.51916962 1478.625 894.5625 C1487.18755188 899.68370855 1495.7004656 904.87965436 1504.1875 910.125 C1513.14884795 915.66289665 1522.16571178 921.09081729 1531.24829102 926.42724609 C1538.20067471 930.51524517 1545.09169915 934.69461249 1551.96484375 938.9140625 C1558.3595095 942.83887285 1564.77379253 946.73142119 1571.1875 950.625 C1571.80312805 950.99878784 1572.4187561 951.37257568 1573.05303955 951.75769043 C1580.64287963 956.36528048 1588.24338844 960.95394314 1595.86328125 965.51171875 C1602.44149162 969.45864497 1608.98926721 973.45623452 1615.54437256 977.44137573 C1623.05598792 982.0074851 1630.57824632 986.55461833 1638.125 991.0625 C1645.75106759 995.61906947 1653.31752492 1000.26817227 1660.875 1004.9375 C1669.8641531 1010.49060927 1678.90885614 1015.93194918 1688.02294922 1021.27709961 C1694.23755203 1024.93158453 1700.38258193 1028.68532106 1706.5 1032.5 C1713.67345177 1036.97313551 1720.89939278 1041.3411604 1728.1875 1045.625 C1736.16830888 1050.3159992 1744.09499929 1055.08294357 1751.984375 1059.92578125 C1758.26908159 1063.78301343 1764.57192259 1067.61039564 1770.875 1071.4375 C1771.48090973 1071.80545685 1772.08681946 1072.1734137 1772.71109009 1072.55252075 C1781.02317938 1077.5992305 1789.35042281 1082.61990739 1797.69482422 1087.61303711 C1804.96679959 1091.96893399 1812.20472286 1096.37998077 1819.44140625 1100.79418945 C1825.54831273 1104.51635304 1831.67279358 1108.20724476 1837.8125 1111.875 C1845.54267762 1116.49425248 1853.21430648 1121.20403144 1860.875 1125.9375 C1869.94048074 1131.53694328 1879.06021058 1137.02886617 1888.24707031 1142.42651367 C1895.19984666 1146.5147816 1902.09129433 1150.69436397 1908.96484375 1154.9140625 C1915.3595095 1158.83887285 1921.77379253 1162.73142119 1928.1875 1166.625 C1929.11094208 1167.18568176 1929.11094208 1167.18568176 1930.05303955 1167.75769043 C1937.64287963 1172.36528048 1945.24338844 1176.95394314 1952.86328125 1181.51171875 C1959.44149162 1185.45864497 1965.98926721 1189.45623452 1972.54437256 1193.44137573 C1980.05598792 1198.0074851 1987.57824632 1202.55461833 1995.125 1207.0625 C2002.75106759 1211.61906947 2010.31752492 1216.26817227 2017.875 1220.9375 C2026.8641531 1226.49060927 2035.90885614 1231.93194918 2045.02294922 1237.27709961 C2051.23755203 1240.93158453 2057.38258193 1244.68532106 2063.5 1248.5 C2070.67345177 1252.97313551 2077.89939278 1257.3411604 2085.1875 1261.625 C2093.16830888 1266.3159992 2101.09499929 1271.08294357 2108.984375 1275.92578125 C2115.26908159 1279.78301343 2121.57192259 1283.61039564 2127.875 1287.4375 C2128.48090973 1287.80545685 2129.08681946 1288.1734137 2129.71109009 1288.55252075 C2138.02317938 1293.5992305 2146.35042281 1298.61990739 2154.69482422 1303.61303711 C2161.96679959 1307.96893399 2169.20472286 1312.37998077 2176.44140625 1316.79418945 C2182.54831273 1320.51635304 2188.67279358 1324.20724476 2194.8125 1327.875 C2202.54267762 1332.49425248 2210.21430648 1337.20403144 2217.875 1341.9375 C2226.94048074 1347.53694328 2236.06021058 1353.02886617 2245.24707031 1358.42651367 C2252.19984666 1362.5147816 2259.09129433 1366.69436397 2265.96484375 1370.9140625 C2272.3595095 1374.83887285 2278.77379253 1378.73142119 2285.1875 1382.625 C2285.80312805 1382.99878784 2286.4187561 1383.37257568 2287.05303955 1383.75769043 C2294.64287963 1388.36528048 2302.24338844 1392.95394314 2309.86328125 1397.51171875 C2316.44045772 1401.45802463 2322.98699859 1405.45530517 2329.54135132 1409.43936157 C2337.90905828 1414.52491654 2346.2915098 1419.58478141 2354.6940918 1424.61254883 C2361.96399044 1428.96735265 2369.19972304 1433.37747854 2376.43481445 1437.78979492 C2382.60823213 1441.55187514 2388.79679551 1445.28726908 2395 1449 C2398.33410733 1450.99871174 2401.6672084 1452.99909523 2405 1455 C2405.98162109 1455.5887793 2406.96324219 1456.17755859 2407.97460938 1456.78417969 C2411.06925177 1458.64310742 2414.15999823 1460.50837058 2417.25 1462.375 C2418.67892578 1463.23158203 2418.67892578 1463.23158203 2420.13671875 1464.10546875 C2435.55709586 1473.44518651 2435.55709586 1473.44518651 2439.3125 1479.25 C2439.76238281 1479.91515625 2440.21226562 1480.5803125 2440.67578125 1481.265625 C2445.46024415 1491.14504691 2445.42847089 1500.86178541 2445.38768005 1511.59811401 C2445.39185668 1513.38835901 2445.397336 1515.17860135 2445.40399987 1516.96883881 C2445.41843004 1521.87141405 2445.41421732 1526.77382083 2445.40683305 1531.67640519 C2445.40209768 1536.97032126 2445.41461451 1542.26420107 2445.42485046 1547.55810547 C2445.44203656 1557.92277499 2445.44287885 1568.28738388 2445.43763756 1578.65206395 C2445.43359427 1587.07754926 2445.43504132 1595.50301667 2445.44038582 1603.92850113 C2445.44113424 1605.12818833 2445.44188266 1606.32787554 2445.44265376 1607.5639169 C2445.44418526 1610.00117079 2445.44572361 1612.43842467 2445.44726873 1614.87567855 C2445.4609931 1637.72594942 2445.45555653 1660.57618603 2445.44408352 1683.42645611 C2445.4341513 1704.32402767 2445.44709177 1725.2215107 2445.47101771 1746.11906861 C2445.49540911 1767.58516792 2445.50501647 1789.05122598 2445.49836498 1810.51733887 C2445.49487285 1822.56553925 2445.49710449 1834.61367153 2445.51461601 1846.66186142 C2445.52933846 1856.91821533 2445.52997278 1867.1744532 2445.5125451 1877.43080483 C2445.50403316 1882.66167193 2445.50189046 1887.89233173 2445.51719666 1893.12318802 C2445.53104767 1897.91614798 2445.5262751 1902.70872311 2445.50695742 1907.50166084 C2445.5031984 1909.23103797 2445.50611653 1910.96044597 2445.51656907 1912.6897956 C2445.59348173 1926.39458135 2444.33250816 1937.6806813 2434.37109375 1947.87109375 C2426.31945835 1955.10032158 2418.43827719 1957.59919833 2407.62109375 1957.3515625 C2396.13798452 1956.23669753 2386.51638325 1948.79936458 2377.00390625 1942.78125 C2370.53222279 1938.68729342 2363.98881624 1934.71453237 2357.4375 1930.75 C2356.24472276 1930.02713192 2355.05201487 1929.30414939 2353.859375 1928.58105469 C2351.4440987 1927.11677274 2349.02855046 1925.65294107 2346.61279297 1924.18945312 C2341.32057382 1920.9828683 2336.03186544 1917.7705022 2330.74295044 1914.55847168 C2327.82878314 1912.78873487 2324.9143794 1911.01938749 2322 1909.25 C2320.83333221 1908.54166852 2319.66666554 1907.83333519 2318.5 1907.125 C2317.9225 1906.774375 2317.345 1906.42375 2316.75 1906.0625 C2311.49999973 1902.87499983 2311.49999973 1902.87499983 2309.75007629 1901.81254578 C2308.58315596 1901.10405879 2307.41623498 1900.39557287 2306.24931335 1899.68708801 C2303.33652253 1897.91861422 2300.42374284 1896.1501221 2297.51098633 1894.3815918 C2292.21476739 1891.16592611 2286.91846018 1887.95040621 2281.62174988 1884.73554993 C2265.48278592 1874.93994148 2249.3517299 1865.13143396 2233.22753906 1855.31152344 C2221.22373942 1848.0013822 2209.21478077 1840.69980853 2197.20010376 1833.40756226 C2188.37009309 1828.04811821 2179.54466125 1822.6812072 2170.72265625 1817.30859375 C2163.15237918 1812.69922949 2155.57676888 1808.09868081 2148 1803.5 C2134.73536189 1795.44890847 2121.48006265 1787.38253904 2108.22753906 1779.31152344 C2096.22373942 1772.0013822 2084.21478077 1764.69980853 2072.20010376 1757.40756226 C2063.37009309 1752.04811821 2054.54466125 1746.6812072 2045.72265625 1741.30859375 C2038.15237918 1736.69922949 2030.57676888 1732.09868081 2023 1727.5 C2009.73536189 1719.44890847 1996.48006265 1711.38253904 1983.22753906 1703.31152344 C1971.22373942 1696.0013822 1959.21478077 1688.69980853 1947.20010376 1681.40756226 C1938.37009309 1676.04811821 1929.54466125 1670.6812072 1920.72265625 1665.30859375 C1913.15237918 1660.69922949 1905.57676888 1656.09868081 1898 1651.5 C1884.73536189 1643.44890847 1871.48006265 1635.38253904 1858.22753906 1627.31152344 C1846.22373942 1620.0013822 1834.21478077 1612.69980853 1822.20010376 1605.40756226 C1813.37009309 1600.04811821 1804.54466125 1594.6812072 1795.72265625 1589.30859375 C1788.15237918 1584.69922949 1780.57676888 1580.09868081 1773 1575.5 C1759.73536189 1567.44890847 1746.48006265 1559.38253904 1733.22753906 1551.31152344 C1721.22373942 1544.0013822 1709.21478077 1536.69980853 1697.20010376 1529.40756226 C1688.37009309 1524.04811821 1679.54466125 1518.6812072 1670.72265625 1513.30859375 C1663.15237918 1508.69922949 1655.57676888 1504.09868081 1648 1499.5 C1634.73536189 1491.44890847 1621.48006265 1483.38253904 1608.22753906 1475.31152344 C1596.22373942 1468.0013822 1584.21478077 1460.69980853 1572.20010376 1453.40756226 C1563.37009309 1448.04811821 1554.54466125 1442.6812072 1545.72265625 1437.30859375 C1538.15237924 1432.69922952 1530.57678664 1428.09865147 1523 1423.5 C1513.56994983 1417.77652959 1504.14408111 1412.04625474 1494.72265625 1406.30859375 C1487.15237918 1401.69922949 1479.57676888 1397.09868081 1472 1392.5 C1458.73536189 1384.44890847 1445.48006265 1376.38253904 1432.22753906 1368.31152344 C1420.22373942 1361.0013822 1408.21478077 1353.69980853 1396.20010376 1346.40756226 C1387.37009309 1341.04811821 1378.54466125 1335.6812072 1369.72265625 1330.30859375 C1362.15237918 1325.69922949 1354.57676888 1321.09868081 1347 1316.5 C1333.73536189 1308.44890847 1320.48006265 1300.38253904 1307.22753906 1292.31152344 C1295.22373942 1285.0013822 1283.21478077 1277.69980853 1271.20010376 1270.40756226 C1262.37009309 1265.04811821 1253.54466125 1259.6812072 1244.72265625 1254.30859375 C1237.15237918 1249.69922949 1229.57676888 1245.09868081 1222 1240.5 C1208.73536189 1232.44890847 1195.48006265 1224.38253904 1182.22753906 1216.31152344 C1170.22373942 1209.0013822 1158.21478077 1201.69980853 1146.20010376 1194.40756226 C1137.37009309 1189.04811821 1128.54466125 1183.6812072 1119.72265625 1178.30859375 C1112.15237918 1173.69922949 1104.57676888 1169.09868081 1097 1164.5 C1083.73536189 1156.44890847 1070.48006265 1148.38253904 1057.22753906 1140.31152344 C1045.22373942 1133.0013822 1033.21478077 1125.69980853 1021.20010376 1118.40756226 C1012.37009309 1113.04811821 1003.54466125 1107.6812072 994.72265625 1102.30859375 C987.15237918 1097.69922949 979.57676888 1093.09868081 972 1088.5 C958.73536189 1080.44890847 945.48006265 1072.38253904 932.22753906 1064.31152344 C920.22373942 1057.0013822 908.21478077 1049.69980853 896.20010376 1042.40756226 C887.37009309 1037.04811821 878.54466125 1031.6812072 869.72265625 1026.30859375 C862.15237918 1021.69922949 854.57676888 1017.09868081 847 1012.5 C833.73536189 1004.44890847 820.48006265 996.38253904 807.22753906 988.31152344 C795.22373942 981.0013822 783.21478077 973.69980853 771.20010376 966.40756226 C762.37009309 961.04811821 753.54466125 955.6812072 744.72265625 950.30859375 C737.15237918 945.69922949 729.57676888 941.09868081 722 936.5 C708.73536189 928.44890847 695.48006265 920.38253904 682.22753906 912.31152344 C670.22373942 905.0013822 658.21478077 897.69980853 646.20010376 890.40756226 C637.37009309 885.04811821 628.54466125 879.6812072 619.72265625 874.30859375 C612.15237924 869.69922952 604.57678664 865.09865147 597 860.5 C587.56994983 854.77652959 578.14408111 849.04625474 568.72265625 843.30859375 C561.15237918 838.69922949 553.57676888 834.09868081 546 829.5 C532.73536189 821.44890847 519.48006265 813.38253904 506.22753906 805.31152344 C494.22373942 798.0013822 482.21478077 790.69980853 470.20010376 783.40756226 C461.37009309 778.04811821 452.54466125 772.6812072 443.72265625 767.30859375 C436.15237918 762.69922949 428.57676888 758.09868081 421 753.5 C407.73536189 745.44890847 394.48006265 737.38253904 381.22753906 729.31152344 C369.22373942 722.0013822 357.21478077 714.69980853 345.20010376 707.40756226 C336.37009309 702.04811821 327.54466125 696.6812072 318.72265625 691.30859375 C311.15237918 686.69922949 303.57676888 682.09868081 296 677.5 C282.73536189 669.44890847 269.48006265 661.38253904 256.22753906 653.31152344 C244.22373942 646.0013822 232.21478077 638.69980853 220.20010376 631.40756226 C211.37009309 626.04811821 202.54466125 620.6812072 193.72265625 615.30859375 C186.15237918 610.69922949 178.57676888 606.09868081 171 601.5 C157.73536189 593.44890847 144.48006265 585.38253904 131.22753906 577.31152344 C119.22373942 570.0013822 107.21478077 562.69980853 95.20010376 555.40756226 C86.37009309 550.04811821 77.54466125 544.6812072 68.72265625 539.30859375 C61.15237918 534.69922949 53.57676888 530.09868081 46 525.5 C32.73536189 517.44890847 19.48006265 509.38253904 6.22753906 501.31152344 C4.36400922 500.17666058 2.50031956 499.04206011 0.63647461 497.90771484 C-1.24132375 496.76386015 -3.1181208 495.61836001 -4.99389648 494.47119141 C-9.79675282 491.53790605 -14.61229165 488.62988395 -19.4611969 485.77348328 C-21.98611201 484.28429936 -24.50489803 482.78490916 -27.02334595 481.28482056 C-28.23625434 480.56603115 -29.45197076 479.85195429 -30.67074585 479.14315796 C-42.45086466 472.28850578 -51.58788155 465.23635536 -56 452 C-56.0971586 449.62758626 -56.13098512 447.25245767 -56.13422108 444.87805748 C-56.13657331 444.14453814 -56.13892554 443.41101879 -56.14134905 442.65527159 C-56.14804766 440.17799312 -56.14758057 437.700767 -56.14717102 435.22348022 C-56.15046911 433.43714112 -56.15419456 431.65080276 -56.1583125 429.86446536 C-56.1683469 424.94033477 -56.17205161 420.01621638 -56.17470181 415.09207702 C-56.17860061 409.78719929 -56.18817925 404.48233126 -56.19691467 399.17745972 C-56.21669133 386.35838613 -56.22674692 373.53931174 -56.23564246 360.72022671 C-56.24002349 354.68642528 -56.24539079 348.65262473 -56.25063133 342.61882401 C-56.26764499 322.5659497 -56.28213966 302.51307595 -56.28938007 282.46019554 C-56.29129003 277.25455093 -56.29321035 272.04890632 -56.29516602 266.84326172 C-56.29564976 265.54939221 -56.2961335 264.25552269 -56.2966319 262.92244501 C-56.30493402 241.95774322 -56.33027344 220.99309845 -56.36274669 200.02842157 C-56.39580034 178.51397589 -56.41382731 156.9995592 -56.41702431 135.48508799 C-56.419191 123.40165779 -56.42796291 111.31831073 -56.45348549 99.23490524 C-56.47516934 88.9450036 -56.4832543 78.65520531 -56.47351871 68.36528341 C-56.46896729 63.1145759 -56.47090925 57.86408171 -56.49028015 52.61340332 C-56.50786435 47.80553135 -56.50695261 42.99802908 -56.49138286 38.19015343 C-56.48899957 36.45186658 -56.4933676 34.71355445 -56.50521151 32.97530632 C-56.61153303 16.33927186 -56.61153303 16.33927186 -52 9 C-51.51917969 8.19046875 -51.03835938 7.3809375 -50.54296875 6.546875 C-37.4360421 -10.82830154 -17.43633255 -10.68905762 0 0 Z " fill="#FEFEFE" transform="translate(1051,1275)"/>
<path d="M0 0 C1.27199437 0.64565051 2.53543336 1.30837364 3.79077148 1.98583984 C4.47762024 2.34331802 5.16446899 2.7007962 5.87213135 3.06910706 C13.22124615 6.9403938 20.36182591 11.16092609 27.47436523 15.44677734 C28.86995183 16.28182527 30.26579066 17.11645176 31.66186523 17.95068359 C41.6855827 23.94863006 51.66883296 30.01363212 61.64331055 36.09301758 C70.46445274 41.46518348 79.33629078 46.74872801 88.22436523 52.00927734 C98.83566622 58.28974592 109.40535751 64.63220235 119.93334961 71.05126953 C129.32279082 76.7737967 138.76174884 82.40867616 148.22436523 88.00927734 C158.83566622 94.28974592 169.40535751 100.63220235 179.93334961 107.05126953 C189.32279082 112.7737967 198.76174884 118.40867616 208.22436523 124.00927734 C218.83566622 130.28974592 229.40535751 136.63220235 239.93334961 143.05126953 C249.32279082 148.7737967 258.76174884 154.40867616 268.22436523 160.00927734 C278.83566622 166.28974592 289.40535751 172.63220235 299.93334961 179.05126953 C309.32279082 184.7737967 318.76174884 190.40867616 328.22436523 196.00927734 C338.83566622 202.28974592 349.40535751 208.63220235 359.93334961 215.05126953 C369.32279082 220.7737967 378.76174884 226.40867616 388.22436523 232.00927734 C398.83566622 238.28974592 409.40535751 244.63220235 419.93334961 251.05126953 C429.32279082 256.7737967 438.76174884 262.40867616 448.22436523 268.00927734 C458.83566622 274.28974592 469.40535751 280.63220235 479.93334961 287.05126953 C489.32279082 292.7737967 498.76174884 298.40867616 508.22436523 304.00927734 C518.83566622 310.28974592 529.40535751 316.63220235 539.93334961 323.05126953 C549.32279082 328.7737967 558.76174884 334.40867616 568.22436523 340.00927734 C579.40616504 346.62740479 590.53710884 353.32188557 601.63085938 360.08642578 C610.59932909 365.54869313 619.62372568 370.91325071 628.66186523 376.25927734 C638.22348547 381.91525694 647.73146352 387.63713119 657.15161133 393.52685547 C665.64378783 398.81440585 674.25569334 403.89611295 682.86547852 408.98876953 C692.35537908 414.60301519 701.81023515 420.26890475 711.22436523 426.00927734 C721.18237542 432.0812478 731.18740905 438.06874395 741.22436523 444.00927734 C751.83566622 450.28974592 762.40535751 456.63220235 772.93334961 463.05126953 C782.32279082 468.7737967 791.76174884 474.40867616 801.22436523 480.00927734 C811.83566622 486.28974592 822.40535751 492.63220235 832.93334961 499.05126953 C842.32279082 504.7737967 851.76174884 510.40867616 861.22436523 516.00927734 C871.83566622 522.28974592 882.40535751 528.63220235 892.93334961 535.05126953 C902.32279082 540.7737967 911.76174884 546.40867616 921.22436523 552.00927734 C931.83566622 558.28974592 942.40535751 564.63220235 952.93334961 571.05126953 C962.99688269 577.18463148 973.11993398 583.2134385 983.26235962 589.215271 C992.68448611 594.79233279 1002.06574524 600.43084267 1011.41186523 606.13427734 C1020.79285596 611.85854194 1030.23082958 617.47373428 1039.72436523 623.00927734 C1049.80018005 628.88433895 1059.80589607 634.86135928 1069.76196289 640.93701172 C1079.20748092 646.69965649 1088.70210129 652.37442871 1098.22436523 658.00927734 C1108.83580521 664.28950761 1119.40536078 670.63220434 1129.93334961 677.05126953 C1138.64981551 682.36364242 1147.40631105 687.60449156 1156.19021606 692.80456543 C1160.21131384 695.18603502 1164.22905285 697.5731676 1168.24681091 699.96026611 C1171.57991852 701.94033004 1174.91446688 703.91787369 1178.25219727 705.89013672 C1181.4936202 707.80649261 1184.72843456 709.73358805 1187.95898438 711.66821289 C1189.15762039 712.38368028 1190.35840405 713.09556453 1191.56152344 713.8034668 C1202.91350156 720.48764304 1210.74145922 726.71884166 1215.22436523 739.50927734 C1216.27899964 745.44840067 1216.03646501 751.52932815 1215.98626709 757.53771973 C1215.99318987 759.35032288 1216.00272546 761.16291759 1216.01463056 762.97549486 C1216.03957887 767.93073791 1216.02734354 772.88528383 1216.00871325 777.84052873 C1215.99510306 783.19442761 1216.01610909 788.54820902 1216.03259277 793.90208435 C1216.05924091 804.3801788 1216.05352394 814.85801505 1216.03611693 825.33611953 C1216.02255414 833.8535822 1216.02073432 842.37097262 1216.02725983 850.88844299 C1216.02817922 852.10173602 1216.02909862 853.31502905 1216.03004588 854.56508854 C1216.03196428 857.03004438 1216.03390956 859.49500019 1216.03588143 861.95995599 C1216.05298144 885.0616021 1216.03333324 908.16310523 1216.00107923 931.26472789 C1215.97427353 951.07727299 1215.97892993 970.88960714 1216.0065918 990.70214844 C1216.03871725 1013.72239831 1216.05133356 1036.74252295 1216.03291821 1059.76279211 C1216.03100697 1062.21856529 1216.02912074 1064.67433848 1216.02725983 1067.13011169 C1216.02633417 1068.3383277 1216.02540852 1069.54654371 1216.02445482 1070.79137233 C1216.01927918 1079.29637541 1216.02800802 1087.80129891 1216.04213715 1096.30628967 C1216.05898298 1106.67428016 1216.05437388 1117.04199817 1216.02245268 1127.40995753 C1216.00670818 1132.69762579 1216.0004675 1137.98484013 1216.0203476 1143.27250481 C1216.03828714 1148.11737824 1216.02830314 1152.96137897 1215.99648228 1157.80617374 C1215.98980566 1159.5543259 1215.99313224 1161.30255248 1216.00773701 1163.05065638 C1216.09659753 1174.57490904 1215.0806236 1183.92057112 1207.04252696 1192.96400023 C1200.42449438 1199.508803 1191.85124387 1203.12121675 1182.59936523 1203.75927734 C1172.09471285 1203.5408305 1163.59761338 1198.17533408 1154.84936523 1192.88427734 C1153.57194394 1192.12238392 1152.29402001 1191.36133269 1151.015625 1190.60107422 C1147.07578816 1188.25265277 1143.14942763 1185.88228114 1139.22436523 1183.50927734 C1138.01562646 1182.78029882 1136.80680703 1182.05145402 1135.59790039 1181.32275391 C1128.03521486 1176.76118389 1120.49218064 1172.16769269 1112.95428467 1167.56530762 C1107.79707664 1164.41708713 1102.63682199 1161.27388273 1097.47436523 1158.13427734 C1096.90554626 1157.78820435 1096.33672729 1157.44213135 1095.75067139 1157.08557129 C1085.45087052 1150.82276325 1075.08758231 1144.66979807 1064.71276855 1138.5322876 C1055.84765979 1133.28563887 1047.04268585 1127.96038235 1038.30810547 1122.49829102 C1030.39277908 1117.56929635 1022.37394753 1112.81980673 1014.34936523 1108.07177734 C1002.2299561 1100.89986413 990.16569911 1093.64623489 978.15161133 1086.29882812 C972.70074867 1082.96648257 967.24547121 1079.64141923 961.78686523 1076.32177734 C961.20891205 1075.97020569 960.63095886 1075.61863403 960.03549194 1075.25640869 C949.64086119 1068.93747875 939.18381361 1062.72667952 928.71414185 1056.53311157 C919.84630911 1051.28484534 911.03834548 1045.95837805 902.30151367 1040.49389648 C894.45225688 1035.60533771 886.49693299 1030.90163949 878.53686523 1026.19677734 C868.70973894 1020.38827249 858.9277793 1014.5229813 849.22436523 1008.50927734 C839.66295889 1002.58559718 830.03004358 996.79768152 820.34936523 991.07177734 C810.1913691 985.0626641 800.05720933 979.01877548 789.97436523 972.88427734 C789.40280701 972.53662323 788.83124878 972.18896912 788.24237061 971.83078003 C783.66511894 969.04590161 779.09041967 966.25684154 774.51586914 963.4675293 C770.50325375 961.02110612 766.48950045 958.57656284 762.47436523 956.13427734 C761.62322144 955.61639145 761.62322144 955.61639145 760.75488281 955.08804321 C750.34193053 948.75617631 739.86430963 942.53590505 729.37585449 936.33013916 C721.69775007 931.78555341 714.04809522 927.21255949 706.51855469 922.42456055 C699.325149 917.88445233 691.98172165 913.59102972 684.66186523 909.25927734 C672.43847596 902.02456101 660.26931774 894.70960451 648.15161133 887.29882812 C642.70074867 883.96648257 637.24547121 880.64141923 631.78686523 877.32177734 C630.91993546 876.79441986 630.91993546 876.79441986 630.03549194 876.25640869 C619.64086119 869.93747875 609.18381361 863.72667952 598.71414185 857.53311157 C589.84630911 852.28484534 581.03834548 846.95837805 572.30151367 841.49389648 C564.45225688 836.60533771 556.49693299 831.90163949 548.53686523 827.19677734 C538.70973894 821.38827249 528.9277793 815.5229813 519.22436523 809.50927734 C509.66295889 803.58559718 500.03004358 797.79768152 490.34936523 792.07177734 C480.1913691 786.0626641 470.05720933 780.01877548 459.97436523 773.88427734 C459.40280701 773.53662323 458.83124878 773.18896912 458.24237061 772.83078003 C453.66511894 770.04590161 449.09041967 767.25684154 444.51586914 764.4675293 C440.50325375 762.02110612 436.48950045 759.57656284 432.47436523 757.13427734 C431.62322144 756.61639145 431.62322144 756.61639145 430.75488281 756.08804321 C420.34193053 749.75617631 409.86430963 743.53590505 399.37585449 737.33013916 C391.69775007 732.78555341 384.04809522 728.21255949 376.51855469 723.42456055 C369.325149 718.88445233 361.98172165 714.59102972 354.66186523 710.25927734 C342.43847596 703.02456101 330.26931774 695.70960451 318.15161133 688.29882812 C312.7007486 684.96648252 307.24545578 681.64144468 301.78686523 678.32177734 C301.21057373 677.9712027 300.63428223 677.62062805 300.04052734 677.25942993 C289.53246575 670.8712635 278.96082186 664.59296275 268.37722778 658.33096313 C260.69866602 653.7861021 253.04854559 649.21284588 245.51855469 644.42456055 C238.325149 639.88445233 230.98172165 635.59102972 223.66186523 631.25927734 C211.43847596 624.02456101 199.26931774 616.70960451 187.15161133 609.29882812 C181.7007486 605.96648252 176.24545578 602.64144468 170.78686523 599.32177734 C170.21057373 598.9712027 169.63428223 598.62062805 169.04052734 598.25942993 C158.53246575 591.8712635 147.96082186 585.59296275 137.37722778 579.33096313 C129.69866602 574.7861021 122.04854559 570.21284588 114.51855469 565.42456055 C107.325149 560.88445233 99.98172165 556.59102972 92.66186523 552.25927734 C80.43847596 545.02456101 68.26931774 537.70960451 56.15161133 530.29882812 C50.7007486 526.96648252 45.24545578 523.64144468 39.78686523 520.32177734 C39.21057373 519.9712027 38.63428223 519.62062805 38.04052734 519.25942993 C28.22653488 513.29320899 18.35828684 507.42124795 8.47436523 501.57177734 C-0.96006914 495.98775607 -10.38657965 490.40096525 -19.63110352 484.50537109 C-21.72091731 483.17879364 -23.82793913 481.8789302 -25.95141602 480.60693359 C-34.90056417 475.190032 -41.03824918 468.97560442 -44.31485337 458.84155428 C-44.9480994 455.63633565 -44.90537859 452.56600424 -44.90985584 449.29831505 C-44.91338419 448.20181978 -44.91338419 448.20181978 -44.91698381 447.0831731 C-44.92366932 444.6204872 -44.92321573 442.15785412 -44.92280579 439.69515991 C-44.92610469 437.91692004 -44.92983031 436.13868092 -44.93394727 434.36044276 C-44.94397235 429.46330528 -44.94768488 424.56618005 -44.95033658 419.66903377 C-44.9542381 414.39142126 -44.96381652 409.11381847 -44.97254944 403.83621216 C-44.99231781 391.08577548 -45.00238039 378.335338 -45.01127723 365.58488983 C-45.01565939 359.58210157 -45.02102637 353.5793142 -45.0262661 347.57652664 C-45.0432785 327.62483847 -45.05777314 307.67315084 -45.06501484 287.72145653 C-45.06692477 282.54314549 -45.06884509 277.36483446 -45.07080078 272.18652344 C-45.07128452 270.89946297 -45.07176826 269.6124025 -45.07226666 268.28634019 C-45.08056868 247.43230834 -45.10590846 226.57833382 -45.13838146 205.72432701 C-45.17144083 184.31945604 -45.18946257 162.91461422 -45.19265908 141.50971758 C-45.19482518 129.48942741 -45.20358853 117.46922085 -45.22912025 105.44895554 C-45.25081186 95.21290535 -45.25888521 84.97695908 -45.24915347 74.74088852 C-45.24460439 69.51840343 -45.24653055 64.29613283 -45.26591492 59.07367706 C-45.28351559 54.29046442 -45.28257392 49.50762322 -45.26701763 44.72440679 C-45.26463686 42.99622616 -45.26898936 41.26802001 -45.28084628 39.53987841 C-45.36674041 26.19145127 -43.77995129 16.703806 -34.29125977 6.71240234 C-25.29231448 -1.16866154 -11.30944128 -5.12104696 0 0 Z " fill="#FEFEFE" transform="translate(2289.775634765625,773.49072265625)"/>
<path d="M0 0 C1.12921875 -0.02835938 2.2584375 -0.05671875 3.421875 -0.0859375 C12.87518829 1.05231859 20.72790693 6.21028336 28.6875 11.125 C30.90444234 12.47478906 33.12190841 13.82371823 35.33984375 15.171875 C36.19109329 15.6912262 36.19109329 15.6912262 37.05953979 16.22106934 C43.25445118 19.998569 49.50164463 23.68673468 55.75 27.375 C69.45841893 35.48331683 83.11539738 43.67606302 96.76269531 51.88671875 C107.79834003 58.5253843 118.86093538 65.11741968 129.9375 71.6875 C144.73287425 80.46351602 159.48947069 89.3025035 174.23144531 98.16796875 C186.88244133 105.77424089 199.5536364 113.34478958 212.25 120.875 C228.20870862 130.34135525 244.15659984 139.82580157 260 149.484375 C262.33321816 150.90643911 264.66651574 152.32837258 267 153.75 C267.86587234 154.27753876 267.86587234 154.27753876 268.74923706 154.81573486 C280.37365073 161.89199358 292.1079519 168.77419022 303.859375 175.63671875 C310.40704139 179.46124595 316.91838016 183.34065062 323.40771484 187.26318359 C327.14198538 189.51681042 330.88434469 191.75699319 334.625 194 C340.07185756 197.2669664 345.51775158 200.53551285 350.9609375 203.80859375 C362.70313096 210.86622749 374.46644991 217.88672515 386.25 224.875 C400.94150255 233.58802734 415.59356705 242.36510452 430.23144531 251.16796875 C442.88244133 258.77424089 455.5536364 266.34478958 468.25 273.875 C484.20870862 283.34135525 500.15659984 292.82580157 516 302.484375 C518.33321816 303.90643911 520.66651574 305.32837258 523 306.75 C523.86587234 307.27753876 523.86587234 307.27753876 524.74923706 307.81573486 C536.37365073 314.89199358 548.1079519 321.77419022 559.859375 328.63671875 C566.39966442 332.45693702 572.90373784 336.33185656 579.38574219 340.25 C583.23140086 342.57069083 587.08535071 344.87760547 590.9375 347.1875 C595.90904625 350.16939563 600.88024695 353.15184161 605.84765625 356.140625 C615.49742415 361.94358127 625.16986675 367.70741223 634.85449219 373.45193481 C651.61208887 383.3919374 668.36356886 393.34234803 685 403.484375 C687.33321816 404.90643911 689.66651574 406.32837258 692 407.75 C692.86587234 408.27753876 692.86587234 408.27753876 693.74923706 408.81573486 C705.37365073 415.89199358 717.1079519 422.77419022 728.859375 429.63671875 C735.39966442 433.45693702 741.90373784 437.33185656 748.38574219 441.25 C752.23140086 443.57069083 756.08535071 445.87760547 759.9375 448.1875 C764.90904625 451.16939563 769.88024695 454.15184161 774.84765625 457.140625 C784.49742415 462.94358127 794.16986675 468.70741223 803.85449219 474.45193481 C820.61208887 484.3919374 837.36356886 494.34234803 854 504.484375 C856.33321816 505.90643911 858.66651574 507.32837258 861 508.75 C861.86587234 509.27753876 861.86587234 509.27753876 862.74923706 509.81573486 C874.37365073 516.89199358 886.1079519 523.77419022 897.859375 530.63671875 C904.39966442 534.45693702 910.90373784 538.33185656 917.38574219 542.25 C921.23140086 544.57069083 925.08535071 546.87760547 928.9375 549.1875 C933.90904625 552.16939563 938.88024695 555.15184161 943.84765625 558.140625 C953.49742415 563.94358127 963.16986675 569.70741223 972.85449219 575.45193481 C989.61208887 585.3919374 1006.36356886 595.34234803 1023 605.484375 C1025.33321816 606.90643911 1027.66651574 608.32837258 1030 609.75 C1030.57724823 610.1016925 1031.15449646 610.45338501 1031.74923706 610.81573486 C1043.37365073 617.89199358 1055.1079519 624.77419022 1066.859375 631.63671875 C1073.39966442 635.45693702 1079.90373784 639.33185656 1086.38574219 643.25 C1090.23140086 645.57069083 1094.08535071 647.87760547 1097.9375 650.1875 C1102.90904625 653.16939563 1107.88024695 656.15184161 1112.84765625 659.140625 C1122.49897188 664.94451201 1132.17297741 670.70924634 1141.85916138 676.4546814 C1152.60363847 682.82803707 1163.34446141 689.20725261 1174.0625 695.625 C1175.03856201 696.20805908 1176.01462402 696.79111816 1177.02026367 697.3918457 C1181.77147026 700.24124953 1186.50182629 703.1236141 1191.203125 706.0546875 C1192.07743164 706.59851074 1192.95173828 707.14233398 1193.85253906 707.70263672 C1200.48910814 712.33201535 1204.99342767 718.62362237 1207.25 726.375 C1207.84599431 732.21358497 1207.79937004 738.02699851 1207.77139282 743.89082336 C1207.77743805 745.68433317 1207.78521812 747.47783782 1207.79457796 749.2713334 C1207.81512764 754.18760578 1207.81077711 759.10358629 1207.80221677 764.01988256 C1207.79728038 769.32678389 1207.81531298 774.63361511 1207.83029175 779.94049072 C1207.85578498 790.33271202 1207.85937321 800.72482997 1207.85469122 811.11707727 C1207.85112438 819.56499851 1207.8546252 828.0128884 1207.86314011 836.46080589 C1207.86433048 837.66340395 1207.86552086 838.866002 1207.86674731 840.10504242 C1207.86917083 842.54817485 1207.8715991 844.99130727 1207.87403207 847.43443968 C1207.89578299 870.3443246 1207.89145819 893.25415063 1207.87926237 916.16403886 C1207.86892484 937.11667967 1207.8914327 958.06913449 1207.92945881 979.02173851 C1207.96821546 1000.54205515 1207.98472759 1022.06228381 1207.97721231 1043.58263558 C1207.97338809 1055.66218605 1207.9783651 1067.74157824 1208.00664139 1079.82110023 C1208.0304709 1090.10497136 1208.03327692 1100.38858678 1208.00906105 1110.67246143 C1207.99728454 1115.91759203 1207.99508083 1121.16225493 1208.01906586 1126.40735435 C1208.04078773 1131.21347088 1208.03457385 1136.01872935 1208.00654249 1140.82480576 C1208.00124954 1142.55892409 1208.00597903 1144.29310972 1208.02201422 1146.02716199 C1208.1233058 1157.80269684 1206.61193849 1167.0976086 1198.6875 1176.375 C1197.883125 1177.035 1197.07875 1177.695 1196.25 1178.375 C1195.528125 1179.055625 1194.80625 1179.73625 1194.0625 1180.4375 C1185.31663951 1186.46242611 1176.3418451 1187.7687459 1165.9140625 1185.97265625 C1154.4770855 1182.72013305 1143.46233795 1174.36130955 1133.37353516 1168.19384766 C1130.3217716 1166.32836025 1127.26607084 1164.46933655 1124.2109375 1162.609375 C1123.60699158 1162.24146851 1123.00304565 1161.87356201 1122.38079834 1161.49450684 C1117.350757 1158.43184474 1112.30438364 1155.3972633 1107.25 1152.375 C1099.43753267 1147.70075013 1091.65337897 1142.98067255 1083.875 1138.25 C1074.02062311 1132.25696302 1064.14476918 1126.30109901 1054.25 1120.375 C1043.98468928 1114.2269359 1033.74276747 1108.0421129 1023.52050781 1101.82275391 C1013.82324654 1095.92399684 1004.09707673 1090.07473354 994.35952759 1084.24276733 C984.61249855 1078.404131 974.89067453 1072.52538595 965.18359375 1066.62060547 C957.05587165 1061.67715033 948.9119274 1056.76180031 940.75 1051.875 C932.00093639 1046.63666295 923.27459127 1041.36203213 914.5625 1036.0625 C904.8124431 1030.13168974 895.04055296 1024.238711 885.25 1018.375 C874.98469284 1012.22692996 864.7427675 1006.04211292 854.52050781 999.82275391 C844.82324654 993.92399684 835.09707673 988.07473354 825.35952759 982.24276733 C815.61249855 976.404131 805.89067453 970.52538595 796.18359375 964.62060547 C788.05587165 959.67715033 779.9119274 954.76180031 771.75 949.875 C763.00093639 944.63666295 754.27459127 939.36203213 745.5625 934.0625 C735.8124431 928.13168974 726.04055296 922.238711 716.25 916.375 C705.98469284 910.22692996 695.7427675 904.04211292 685.52050781 897.82275391 C675.82324654 891.92399684 666.09707673 886.07473354 656.35952759 880.24276733 C646.61249855 874.404131 636.89067453 868.52538595 627.18359375 862.62060547 C619.05587165 857.67715033 610.9119274 852.76180031 602.75 847.875 C594.00093639 842.63666295 585.27459127 837.36203213 576.5625 832.0625 C566.8124431 826.13168974 557.04055296 820.238711 547.25 814.375 C536.98469284 808.22692996 526.7427675 802.04211292 516.52050781 795.82275391 C506.82324654 789.92399684 497.09707673 784.07473354 487.35952759 778.24276733 C477.61249855 772.404131 467.89067453 766.52538595 458.18359375 760.62060547 C450.05587165 755.67715033 441.9119274 750.76180031 433.75 745.875 C425.00093639 740.63666295 416.27459127 735.36203213 407.5625 730.0625 C397.8124431 724.13168974 388.04055296 718.238711 378.25 712.375 C367.98469284 706.22692996 357.7427675 700.04211292 347.52050781 693.82275391 C337.82324654 687.92399684 328.09707673 682.07473354 318.35952759 676.24276733 C308.61249855 670.404131 298.89067453 664.52538595 289.18359375 658.62060547 C281.05587165 653.67715033 272.9119274 648.76180031 264.75 643.875 C256.00093639 638.63666295 247.27459127 633.36203213 238.5625 628.0625 C228.8124431 622.13168974 219.04055296 616.238711 209.25 610.375 C198.98469284 604.22692996 188.7427675 598.04211292 178.52050781 591.82275391 C168.82324654 585.92399684 159.09707673 580.07473354 149.35952759 574.24276733 C139.61249855 568.404131 129.89067453 562.52538595 120.18359375 556.62060547 C112.05587165 551.67715033 103.9119274 546.76180031 95.75 541.875 C87.00093639 536.63666295 78.27459127 531.36203213 69.5625 526.0625 C59.81244154 520.13168879 50.04043633 514.23890758 40.25 508.375 C29.13989305 501.719853 18.04242644 495.04434571 6.98925781 488.29492188 C1.94337243 485.21543704 -3.10635398 482.15162366 -8.21875 479.18359375 C-19.85706053 472.38748321 -29.03627804 466.01463321 -32.75 452.375 C-33.33223333 446.57828378 -33.29535955 440.81213492 -33.2646637 434.99121094 C-33.26999376 433.22428687 -33.2770621 431.45736733 -33.28571075 429.69045639 C-33.30430369 424.8523844 -33.29804464 420.01461921 -33.28755772 415.17653465 C-33.28055629 409.95217615 -33.29657075 404.72788008 -33.30955505 399.50354004 C-33.33118389 389.27588602 -33.33107109 379.04834331 -33.32292951 368.82067394 C-33.31662705 360.50767632 -33.31776881 352.19471114 -33.32420158 343.88171387 C-33.32510324 342.69810138 -33.32600489 341.5144889 -33.32693387 340.29500937 C-33.32878509 337.89044602 -33.33064765 335.48588267 -33.33252143 333.08131933 C-33.3490958 310.53917151 -33.34038353 287.99708629 -33.32353585 265.45494223 C-33.30883688 244.83405942 -33.32347077 224.21332229 -33.35230602 203.59245825 C-33.3817011 182.41338506 -33.39267211 161.2343791 -33.38312382 140.05528641 C-33.38210127 137.65961966 -33.38110666 135.2639529 -33.3801403 132.86828613 C-33.37966391 131.68960394 -33.37918752 130.51092174 -33.3786967 129.2965219 C-33.37653285 120.99448964 -33.38633504 112.69252107 -33.40091133 104.39050293 C-33.41842987 94.27167464 -33.41832393 84.15303213 -33.39555968 74.03421116 C-33.38441369 68.8724098 -33.38126336 63.71093582 -33.39986038 58.54914856 C-33.41667372 53.82159311 -33.41030237 49.09465039 -33.38564359 44.36713457 C-33.38076278 42.65932876 -33.38426926 40.95147344 -33.39713103 39.24370909 C-33.46197044 29.9628369 -33.14716709 22.32714499 -27.75 14.375 C-27.028125 13.3025 -26.30625 12.23 -25.5625 11.125 C-18.46276333 4.18303525 -9.96824862 0.11276299 0 0 Z " fill="#FEFEFE" transform="translate(1066.75,2541.625)"/>
</svg>
